<svg xmlns="http://www.w3.org/2000/svg" viewBox="0 0 164.25 165.61"><defs><style>.cls-1,.cls-2,.cls-4{fill:none;stroke-miterlimit:10;}.cls-1,.cls-2{stroke:#4b0093;opacity:0.5;}.cls-1,.cls-4{stroke-linecap:round;}.cls-1{stroke-width:2px;}.cls-2{stroke-width:3px;}.cls-3{fill:aqua;}.cls-4{stroke:aqua;stroke-width:7px;}.cls-5{fill:#4b0093;}.cls-6{fill:#fff;}</style></defs><g id="Layer_3" data-name="Layer 3"><path class="cls-1" d="M101.65,162.66c-36.8,7.18-66.74-5.39-89.15-39.69C-4.28,86.73.87,55.56,24.52,28.66,61.79-7.58,119-4.38,150.38,39.18"/><circle class="cls-2" cx="83.44" cy="85.1" r="67.79"/><path class="cls-3" d="M164.2,87l-3.33-.15c0-.36,0-.72,0-1.09l3.33.1C164.23,86.25,164.22,86.63,164.2,87Z"/><polygon class="cls-3" points="164.25 81.33 160.92 81.42 160.88 80.33 164.22 80.19 164.25 81.33"/><path class="cls-3" d="M105,162.2l-.93-3.2,1-.31,1,3.19Z"/><path class="cls-3" d="M110.37,160.44l-1.14-3.13,1-.38,1.18,3.12Z"/><path class="cls-3" d="M115.62,158.32l-1.35-3,1-.45,1.4,3Z"/><path class="cls-3" d="M120.71,155.83l-1.56-3,.95-.52,1.61,2.93Z"/><path class="cls-3" d="M125.62,153l-1.77-2.83.92-.58,1.81,2.8Z"/><path class="cls-3" d="M130.32,149.82l-2-2.7.88-.64,2,2.67Z"/><path class="cls-3" d="M134.79,146.34l-2.14-2.57c.28-.23.56-.46.83-.7l2.18,2.53Z"/><path class="cls-3" d="M139,142.55l-2.31-2.41.78-.76,2.34,2.38Z"/><path class="cls-3" d="M143,138.48l-2.47-2.24.73-.81,2.5,2.21Z"/><path class="cls-3" d="M146.64,134.15,144,132.08c.23-.28.45-.57.67-.86l2.65,2C147.11,133.56,146.88,133.85,146.64,134.15Z"/><path class="cls-3" d="M150,129.58l-2.75-1.89.61-.9,2.78,1.84Z"/><path class="cls-3" d="M153.05,124.78l-2.88-1.69.54-1,2.91,1.66Z"/><path class="cls-3" d="M155.75,119.78l-3-1.48c.16-.33.33-.66.48-1l3,1.44C156.09,119.1,155.92,119.44,155.75,119.78Z"/><path class="cls-3" d="M158.1,114.61,155,113.33c.14-.33.28-.67.41-1l3.1,1.23C158.39,113.91,158.25,114.26,158.1,114.61Z"/><path class="cls-3" d="M160.09,109.28l-3.16-1.06c.11-.34.22-.69.34-1l3.18,1Z"/><path class="cls-3" d="M161.7,103.82l-3.23-.83.27-1.06,3.24.79C161.89,103.09,161.8,103.45,161.7,103.82Z"/><path class="cls-3" d="M162.93,98.28l-3.29-.61c.07-.35.13-.71.19-1.07l3.3.56C163.06,97.53,163,97.91,162.93,98.28Z"/><path class="cls-3" d="M163.76,92.66l-3.32-.37c.05-.36.08-.72.12-1.08l3.32.32Z"/><path class="cls-3" d="M160.59,76c0-.36-.07-.73-.11-1.09l3.32-.35.12,1.13Z"/><path class="cls-3" d="M159.89,70.58c0-.36-.12-.72-.18-1.07l3.29-.59c.06.37.13.74.19,1.12Z"/><path class="cls-3" d="M158.83,65.24c-.09-.35-.17-.71-.26-1.06l3.23-.81c.1.37.19.73.27,1.1Z"/><path class="cls-3" d="M157.39,60c-.11-.35-.22-.69-.34-1l3.18-1c.11.35.23.71.34,1.08Z"/><path class="cls-3" d="M155.59,54.85c-.14-.33-.27-.67-.41-1l3.09-1.26c.15.36.29.71.42,1.06Z"/><path class="cls-3" d="M153.43,49.86l-.47-1,3-1.46c.17.33.33.67.49,1Z"/><path class="cls-3" d="M150.94,45l-.54-.95,2.89-1.67c.19.32.38.65.56,1Z"/><path class="cls-4" d="M38,18.4C21.16,31.25,9.22,46.91,5.15,67.1c-3.42,14.44-1.29,30,4.24,46.2"/><circle class="cls-5" cx="102.3" cy="5.97" r="5.97"/><circle class="cls-5" cx="48.71" cy="156.93" r="5.97"/><path class="cls-6" d="M103.25,53H75.91a3.79,3.79,0,1,1,0-2.72h26.9a7.59,7.59,0,0,0-.45-1.11,8.72,8.72,0,0,0-1-1.61,10.09,10.09,0,0,0-2.1-2,12.39,12.39,0,0,0-3.77-1.8c-.35-.09-.71-.18-1.05-.25l-.6-.1-.73-.11c-1-.15-2-.27-3-.37-1.95-.19-3.93-.29-5.91-.3h-.35c-1.79,0-3.58.07-5.31.22-.9.08-1.79.18-2.64.3q-.63.07-1.26.18l-1.07.19a25.52,25.52,0,0,0-3,.73,13.79,13.79,0,0,0-2.22.91,7.47,7.47,0,0,0-1.53,1.05,5.7,5.7,0,0,0-1,1.2,6.25,6.25,0,0,0-.63,1.46,9.84,9.84,0,0,0-.34,1.82,20.5,20.5,0,0,0-.11,2.21v9.15H84.57v2.51H55.77a12.58,12.58,0,0,0-3.44.46,11.21,11.21,0,0,0-3,1.37,11,11,0,0,0-2.53,2.25,12,12,0,0,0-1.88,3.15c-.13.31-.25.63-.35,1s-.2.64-.29,1-.2.79-.28,1.18l-.27,1.21A43.45,43.45,0,0,0,43,80.55c-.08.69-.13,1.38-.17,2s0,1.37,0,2,0,1.4.1,2.1.13,1.38.23,2.1.24,1.54.4,2.37.3,1.51.5,2.37c.09.38.18.76.28,1.14l.12.46c0,.15.09.3.13.45s.19.58.29.87.21.56.33.84a16.12,16.12,0,0,0,.74,1.5,11.54,11.54,0,0,0,.92,1.39,9.57,9.57,0,0,0,1.53,1.58,9.13,9.13,0,0,0,1.27.86,9,9,0,0,0,1.45.64,9.49,9.49,0,0,0,1.65.42,12.74,12.74,0,0,0,1.88.18h5.12v-8a11.67,11.67,0,0,1,3.37-8.18,11.29,11.29,0,0,1,8.12-3.48H91.67a11.54,11.54,0,0,0,8.1-3.49,11.74,11.74,0,0,0,3.49-8.29V53Z"/><path class="cls-6" d="M122.57,74.59c-1.69-6.8-4.77-10-9.69-10h-7.12v8.52a13.67,13.67,0,0,1-13.4,13.59H71.87a9.89,9.89,0,0,0-9.68,9.85v16.94H85.62a3.71,3.71,0,0,1,7.19,1.35,3.71,3.71,0,0,1-7.19,1.37H62.2c.08,6,6.18,8.67,9.83,9.74a34.77,34.77,0,0,0,10,1.54A36,36,0,0,0,92.2,126c4.49-1.3,9.84-4.06,9.84-9.86v-8.5H81.54v-2.51h31.34c5.36,0,7.55-3.52,9.71-10C124.66,88.9,124.65,83,122.57,74.59Z"/></g></svg>