<svg xmlns="http://www.w3.org/2000/svg" viewBox="0 0 164.25 165.61"><defs><style>.cls-1,.cls-2,.cls-4{fill:none;stroke-miterlimit:10;}.cls-1,.cls-2{stroke:#4b008f;opacity:0.5;}.cls-1,.cls-4{stroke-linecap:round;}.cls-1{stroke-width:2px;}.cls-2{stroke-width:3px;}.cls-3{fill:aqua;}.cls-4{stroke:aqua;stroke-width:7px;}.cls-5{fill:#4b008f;}.cls-6{fill:#fff;}</style></defs><g id="Layer_3" data-name="Layer 3"><path class="cls-1" d="M101.65,162.66c-36.8,7.18-66.74-5.39-89.15-39.69C-4.28,86.73.87,55.56,24.52,28.66,61.79-7.58,119-4.38,150.38,39.18"/><circle class="cls-2" cx="83.44" cy="85.1" r="67.79"/><path class="cls-3" d="M164.2,87l-3.33-.15c0-.36,0-.72,0-1.09l3.33.1C164.23,86.25,164.22,86.63,164.2,87Z"/><polygon class="cls-3" points="164.25 81.33 160.92 81.42 160.88 80.33 164.22 80.19 164.25 81.33"/><path class="cls-3" d="M105,162.2l-.93-3.2,1-.31,1,3.19Z"/><path class="cls-3" d="M110.37,160.44l-1.14-3.13,1-.38,1.18,3.12Z"/><path class="cls-3" d="M115.62,158.32l-1.35-3,1-.45,1.4,3Z"/><path class="cls-3" d="M120.71,155.83l-1.56-3,.95-.52,1.61,2.93Z"/><path class="cls-3" d="M125.62,153l-1.77-2.83.92-.58,1.81,2.8Z"/><path class="cls-3" d="M130.32,149.82l-2-2.7.88-.64,2,2.67Z"/><path class="cls-3" d="M134.79,146.34l-2.14-2.57c.28-.23.56-.46.83-.7l2.18,2.53Z"/><path class="cls-3" d="M139,142.55l-2.31-2.41.78-.76,2.34,2.38Z"/><path class="cls-3" d="M143,138.48l-2.47-2.24.73-.81,2.5,2.21Z"/><path class="cls-3" d="M146.64,134.15,144,132.08c.23-.28.45-.57.67-.86l2.65,2C147.11,133.56,146.88,133.85,146.64,134.15Z"/><path class="cls-3" d="M150,129.58l-2.75-1.89.61-.9,2.78,1.84Z"/><path class="cls-3" d="M153.05,124.78l-2.88-1.69.54-1,2.91,1.66Z"/><path class="cls-3" d="M155.75,119.78l-3-1.48c.16-.33.33-.66.48-1l3,1.44C156.09,119.1,155.92,119.44,155.75,119.78Z"/><path class="cls-3" d="M158.1,114.61,155,113.33c.14-.33.28-.67.41-1l3.1,1.23C158.39,113.91,158.25,114.26,158.1,114.61Z"/><path class="cls-3" d="M160.09,109.28l-3.16-1.06c.11-.34.22-.69.34-1l3.18,1Z"/><path class="cls-3" d="M161.7,103.82l-3.23-.83.27-1.06,3.24.79C161.89,103.09,161.8,103.45,161.7,103.82Z"/><path class="cls-3" d="M162.93,98.28l-3.29-.61c.07-.35.13-.71.19-1.07l3.3.56C163.06,97.53,163,97.91,162.93,98.28Z"/><path class="cls-3" d="M163.76,92.66l-3.32-.37c.05-.36.08-.72.12-1.08l3.32.32Z"/><path class="cls-3" d="M160.59,76c0-.36-.07-.73-.11-1.09l3.32-.35.12,1.13Z"/><path class="cls-3" d="M159.89,70.58c0-.36-.12-.72-.18-1.07l3.29-.59c.06.37.13.74.19,1.12Z"/><path class="cls-3" d="M158.83,65.24c-.09-.35-.17-.71-.26-1.06l3.23-.81c.1.37.19.73.27,1.1Z"/><path class="cls-3" d="M157.39,60c-.11-.35-.22-.69-.34-1l3.18-1c.11.35.23.71.34,1.08Z"/><path class="cls-3" d="M155.59,54.85c-.14-.33-.27-.67-.41-1l3.09-1.26c.15.36.29.71.42,1.06Z"/><path class="cls-3" d="M153.43,49.86l-.47-1,3-1.46c.17.33.33.67.49,1Z"/><path class="cls-3" d="M150.94,45l-.54-.95,2.89-1.67c.19.32.38.65.56,1Z"/><path class="cls-4" d="M38,18.4C21.16,31.25,9.22,46.91,5.15,67.1c-3.42,14.44-1.29,30,4.24,46.2"/><circle class="cls-5" cx="102.3" cy="5.97" r="5.97"/><circle class="cls-5" cx="48.71" cy="156.93" r="5.97"/><path id="path1948" class="cls-6" d="M82.94,42.59a58,58,0,0,0-9.71.83C64.62,44.94,63.06,48.12,63.06,54v7.74H83.39v2.59H55.44c-5.91,0-11.08,3.55-12.7,10.3-1.87,7.74-2,12.57,0,20.66,1.44,6,4.89,10.3,10.8,10.3h7V96.3a12.92,12.92,0,0,1,12.7-12.63h20.3a10.24,10.24,0,0,0,10.16-10.33V54c0-5.51-4.65-9.65-10.16-10.57A64.22,64.22,0,0,0,82.94,42.59ZM72,48.82a3.88,3.88,0,1,1-3.82,3.89A3.85,3.85,0,0,1,72,48.82Z"/><path id="path1950" class="cls-6" d="M106.23,64.32v9a13,13,0,0,1-12.7,12.89H73.23A10.38,10.38,0,0,0,63.06,96.56v19.35c0,5.51,4.79,8.75,10.17,10.33a34,34,0,0,0,20.3,0c5.12-1.48,10.16-4.46,10.16-10.33v-7.74H83.39v-2.59h30.46c5.91,0,8.11-4.12,10.17-10.3,2.12-6.37,2-12.49,0-20.66-1.46-5.88-4.25-10.3-10.17-10.3Zm-11.42,49A3.88,3.88,0,1,1,91,117.19,3.84,3.84,0,0,1,94.81,113.33Z"/><circle class="cls-2" cx="83.44" cy="85.1" r="67.79"/></g></svg>